<svg xmlns="http://www.w3.org/2000/svg" version="1.1" xmlns:xlink="http://www.w3.org/1999/xlink" width="512" height="512"><svg version="1.1" id="SvgjsSvg1005" xmlns="http://www.w3.org/2000/svg" xmlns:xlink="http://www.w3.org/1999/xlink" x="0px" y="0px" viewBox="0 0 512 512" style="enable-background:new 0 0 512 512;" xml:space="preserve">
<style type="text/css">
	.st0{fill:#FFFFFF;}
	.st1{fill:#DCFA1E;}
	.st2{fill:#F4FF8A;}
</style>
<rect x="2.08" y="2.08" width="512" height="512"></rect>
<g>
	<g>
		<path class="st0" d="M130.17,235.6h28.36v7.16h-9.71v29.51h-8.93v-29.51h-9.71V235.6z"></path>
		<path class="st0" d="M173,242.28c4.34,0,7.42,1.98,8.98,4.54v-4.54h8.93v29.98h-8.93v-4.54c-1.62,2.56-4.7,4.54-9.04,4.54
			c-7.1,0-12.8-5.85-12.8-15.04C160.15,248.03,165.85,242.28,173,242.28z M175.61,250.07c-3.34,0-6.37,2.51-6.37,7.16
			c0,4.65,3.03,7.26,6.37,7.26c3.39,0,6.37-2.56,6.37-7.21C181.99,252.63,179.01,250.07,175.61,250.07z"></path>
		<polygon class="st2" points="202.01,240.14 198.03,261.73 205.32,272.27 212.13,235.27 		"></polygon>
		<path class="st1" d="M219.5,230.43h9.23l-7.7,41.84l-7.29-10.53L219.5,230.43z"></path>
		<path class="st0" d="M255.32,242.76h9.66l-18.28,42.99h-9.61l6.69-14.83l-11.86-28.15h9.98l6.74,18.23L255.32,242.76z"></path>
		<path class="st0" d="M281.49,272.27c-7.89,0-14.05-3.92-14.31-11.33h9.51c0.26,2.82,2.04,4.18,4.54,4.18
			c2.61,0,4.28-1.31,4.28-3.45c0-6.79-18.33-3.13-18.23-16.14c0-6.95,5.69-10.81,13.37-10.81c7.99,0,13.37,3.97,13.74,10.97h-9.66
			c-0.16-2.35-1.83-3.76-4.23-3.81c-2.14-0.05-3.76,1.04-3.76,3.34c0,6.37,18.12,3.5,18.12,15.77
			C294.86,267.15,290.05,272.27,281.49,272.27z"></path>
		<path class="st0" d="M300.34,230.43h8.93v16.61c1.78-2.51,4.96-4.23,8.98-4.23c6.63,0,11.07,4.6,11.07,12.43v17.03h-8.88v-15.83
			c0-3.97-2.19-6.16-5.59-6.16s-5.59,2.19-5.59,6.16v15.83h-8.93V230.43z"></path>
		<path class="st0" d="M334.71,235.29c0-2.72,2.14-4.86,5.33-4.86c3.13,0,5.28,2.14,5.28,4.86c0,2.66-2.14,4.81-5.28,4.81
			C336.85,240.09,334.71,237.95,334.71,235.29z M335.54,243.12h8.93v29.14h-8.93V243.12z"></path>
		<path class="st0" d="M351.84,250.54h-3.24v-7.42h3.24v-0.84c0-7.63,4.7-11.39,13.58-10.92v7.57c-3.45-0.21-4.65,0.84-4.65,3.92
			v0.26h10.43v7.42h-10.43v21.73h-8.93V250.54z"></path>
		<path class="st0" d="M371.17,250.54h-3.55v-7.42h3.55v-7.1h8.93v7.1h5.85v7.42h-5.85v11.7c0,1.72,0.73,2.45,2.72,2.45H386v7.57
			h-4.54c-6.06,0-10.29-2.56-10.29-10.13V250.54z"></path>
	</g>
</g>
</svg><style>@media (prefers-color-scheme: light) { :root { filter: none; } }
@media (prefers-color-scheme: dark) { :root { filter: none; } }
</style></svg>