<?xml version="1.0" encoding="UTF-8"?>
<svg xmlns="http://www.w3.org/2000/svg" viewBox="0 0 970.68 222.94">
  <g isolation="isolate">
    <g id="a" data-name="Layer 1">
      <g>
        <path d="M9.11,26.65h105.3v26.57h-36.07v109.57h-33.16V53.21H9.11v-26.57Z"/>
        <path d="M168.14,51.47c16.1,0,27.54,7.37,33.35,16.87v-16.87h33.16v111.31h-33.16v-16.87c-6.01,9.5-17.45,16.87-33.55,16.87-26.37,0-47.51-21.72-47.51-55.85s21.14-55.46,47.7-55.46ZM177.84,80.36c-12.41,0-23.66,9.31-23.66,26.57s11.25,26.95,23.66,26.95,23.66-9.5,23.66-26.76-11.05-26.76-23.66-26.76Z"/>
        <polygon points="275.83 43.49 261.06 123.68 288.13 162.78 313.43 25.41 275.83 43.49" fill="#f4ff8a"/>
        <path d="M340.78,7.45h34.27l-28.6,155.33-27.07-39.1,21.4-116.23Z" fill="#dcfa1e"/>
        <polygon points="275.83 43.49 261.06 123.68 288.13 162.78 313.43 25.41 275.83 43.49" fill="#f4ff8a" mix-blend-mode="multiply"/>
        <path d="M340.78,7.45h34.27l-28.6,155.33-27.07-39.1,21.4-116.23Z" fill="#dcfa1e" mix-blend-mode="multiply"/>
        <polygon points="275.83 43.49 261.06 123.68 288.13 162.78 313.43 25.41 275.83 43.49" fill="#f4ff8a" mix-blend-mode="multiply"/>
        <path d="M340.78,7.45h34.27l-28.6,155.33-27.07-39.1,21.4-116.23Z" fill="#dcfa1e" mix-blend-mode="multiply"/>
        <polygon points="275.83 43.49 261.06 123.68 288.13 162.78 313.43 25.41 275.83 43.49" fill="#f4ff8a" mix-blend-mode="multiply"/>
        <path d="M340.78,7.45h34.27l-28.6,155.33-27.07-39.1,21.4-116.23Z" fill="#dcfa1e" mix-blend-mode="multiply"/>
        <path d="M473.76,53.21h35.88l-67.87,159.6h-35.68l24.82-55.07-44.02-104.52h37.04l25.02,67.68,24.82-67.68Z"/>
        <path d="M570.91,162.78c-29.28,0-52.16-14.54-53.13-42.08h35.29c.97,10.47,7.56,15.51,16.87,15.51s15.9-4.85,15.9-12.8c0-25.21-68.07-11.64-67.68-59.92,0-25.79,21.14-40.14,49.64-40.14s49.64,14.74,51,40.72h-35.87c-.58-8.73-6.79-13.96-15.71-14.16-7.95-.19-13.96,3.88-13.96,12.41,0,23.66,67.29,12.99,67.29,58.56,0,22.88-17.84,41.89-49.64,41.89Z"/>
        <path d="M640.91,7.45h33.16v61.67c6.59-9.31,18.42-15.71,33.35-15.71,24.63,0,41.11,17.06,41.11,46.15v63.22h-32.97v-58.76c0-14.74-8.14-22.88-20.75-22.88s-20.75,8.15-20.75,22.88v58.76h-33.16V7.45Z"/>
        <path d="M768.51,25.48c0-10.08,7.95-18.03,19.78-18.03s19.59,7.95,19.59,18.03-7.95,17.84-19.59,17.84-19.78-7.95-19.78-17.84ZM771.62,54.57h33.16v108.21h-33.16V54.57Z"/>
        <path d="M832.12,82.11h-12.02v-27.54h12.02v-3.1c0-28.31,17.45-42.27,50.42-40.53v28.12c-12.8-.78-17.26,3.1-17.26,14.54v.97h38.72v27.54h-38.72v80.67h-33.16v-80.67Z"/>
        <path d="M903.87,82.11h-13.19v-27.54h13.19v-26.37h33.16v26.37h21.72v27.54h-21.72v43.44c0,6.4,2.71,9.11,10.08,9.11h11.83v28.12h-16.87c-22.49,0-38.2-9.5-38.2-37.62v-43.05Z"/>
      </g>
    </g>
  </g>
</svg>